<?xml version="1.0" encoding="utf-8"?>
<!-- Svg Vector Icons : http://www.onlinewebfonts.com/icon -->
<!DOCTYPE svg PUBLIC "-//W3C//DTD SVG 1.1//EN" "http://www.w3.org/Graphics/SVG/1.1/DTD/svg11.dtd">
<svg version="1.1" xmlns="http://www.w3.org/2000/svg" xmlns:xlink="http://www.w3.org/1999/xlink" x="0px" y="0px" viewBox="0 0 256 256" enable-background="new 0 0 256 256" xml:space="preserve">
<metadata> Svg Vector Icons : http://www.onlinewebfonts.com/icon </metadata>
<g><g><g><path fill="#000000" d="M120.2,16.4c-12,2.1-23,7.8-31.3,16C77.5,43.8,71.6,57.8,71.6,73.7c-0.1,10.4,1.9,18.4,6.6,27.6c1.9,3.8,2.8,4.9,4.2,5.6c2.3,1.1,4.5,0.6,6.2-1.4c1.9-2.2,1.7-4.1-1.3-10c-4-8.1-4.9-12-4.9-21.7c0.1-7.3,0.2-8.6,1.5-12.7C92,34,119.8,19.8,145.6,29c15.7,5.6,27.7,19.6,30.7,36c1,5.6,0.8,15.3-0.6,20.6c-0.5,1.9-2.1,6-3.7,9.2c-1.6,3.3-2.8,6.5-2.8,7.4c0,2.5,2.3,4.9,4.8,5c3.1,0.1,4.4-1,6.9-5.8c4.9-9.7,6.8-17.2,6.7-27.7c-0.1-14.1-4.5-26.3-13.8-37.5c-6.8-8.2-18.9-15.8-29.9-18.6C137.5,15.8,126.4,15.4,120.2,16.4z"/><path fill="#000000" d="M223.3,40.9c-1.8,1-2.9,2.7-2.9,4.8c0,1.8,0.4,2.4,3.7,5.7c2,2.1,3.7,4,3.7,4.1c0,0.2-6.4,0.4-14.1,0.4h-14.1l-1.5,1.5c-2.1,2.1-2.1,5.3,0,7.4l1.5,1.5h14.1c7.8,0,14.1,0.2,14.1,0.4c0,0.2-1.4,1.8-3.2,3.5c-3.9,3.9-4.9,5.5-4.4,7.9c0.4,2,3,4.4,4.8,4.4c2.3,0,4-1.4,12.6-10l8.5-8.6v-2.6v-2.6l-9.3-9.3c-7.9-7.9-9.5-9.3-10.8-9.3C225,40.2,223.9,40.6,223.3,40.9z"/><path fill="#000000" d="M28.1,41.7c-0.8,0.6-5.3,4.7-9.8,9.3C7.1,62.4,7,60.9,19.3,73.2c9,9,9.3,9.3,11.4,9.3c3.4-0.1,5.8-2.8,5.3-6c-0.2-1.1-1.5-2.8-4-5.3l-3.7-3.7l14.4-0.3l14.4-0.3l1.4-1.5c1.1-1.1,1.5-1.9,1.5-3.8c0-2-0.3-2.6-1.7-3.9l-1.7-1.5H42.3H28.1l3.4-3.5c4.1-4.2,4.8-5.4,4.4-7.6C35.3,41.7,31.1,39.8,28.1,41.7z"/><path fill="#000000" d="M121.3,57.5c-3.6,1.3-6.1,3.3-8.1,6.5l-1.6,2.5l-0.2,31.3l-0.1,31.2h-3.8c-8.5,0-15.1,2.2-19.2,6.3c-2.6,2.7-6.4,10.2-7.5,15.1c-2.9,12.3-2,26.8,2.6,42c7.7,25.4,22.8,44,38.3,47.2c1.8,0.4,12.7,0.6,31.3,0.6c31.2,0,31.8-0.1,37.4-3c3.3-1.8,9.3-7.7,12-11.7c6.4-9.9,10.9-23,13.7-39.9c1.1-6.8,1.6-26.2,0.8-32c-1.7-12.6-5.8-20.9-11.8-23.5c-3.6-1.6-24.4-6.5-50.6-11.8l-9.4-1.9l-0.3-24.8l-0.3-24.8l-1.6-2.5c-0.8-1.4-2.4-3.2-3.4-4C135.2,56.5,127.1,55.4,121.3,57.5z M132.7,68.4l1.3,0.9l0.3,26.7l0.3,26.7l1.4,1.4c1.2,1.2,3.1,1.7,17.5,4.6c19.7,4,33.5,7.1,41.6,9.2c5.8,1.5,6.3,1.7,7.5,3.5c3.9,5.8,5.4,24.8,3.3,40.5c-3.1,23.2-11.4,41.2-21.3,46l-3,1.5l-26.8,0.2c-17.3,0.1-27.8-0.1-29.8-0.4c-4.4-0.8-8.1-2.9-12.7-7.3c-19.2-18-28.5-59.2-17.4-76.8c2.3-3.8,4.4-4.7,11.3-5.1l5-0.2l0.3,3.2c0.2,2.6,0.5,3.5,1.6,4.6c2,2,5.5,2,7.5,0l1.5-1.4l0.2-38.2c0.1-29.3,0.3-38.4,0.8-38.9C124.9,66.8,130.1,66.4,132.7,68.4z"/></g></g></g>
</svg>